<svg xmlns="http://www.w3.org/2000/svg" viewBox="0 0 640 640" role="img" aria-labelledby="title desc">
  <title id="title">Shiba Inu illustration</title>
  <desc id="desc">A warm-toned shiba inu portrait with a soft patterned background.</desc>
  <defs>
    <linearGradient id="bg" x1="0%" y1="0%" x2="100%" y2="100%">
      <stop offset="0%" stop-color="#fff3de" />
      <stop offset="100%" stop-color="#f0d1a7" />
    </linearGradient>
    <linearGradient id="fur" x1="0%" y1="0%" x2="100%" y2="100%">
      <stop offset="0%" stop-color="#d88343" />
      <stop offset="100%" stop-color="#b95d28" />
    </linearGradient>
    <linearGradient id="ear" x1="0%" y1="0%" x2="100%" y2="100%">
      <stop offset="0%" stop-color="#b65521" />
      <stop offset="100%" stop-color="#8f3f18" />
    </linearGradient>
    <filter id="shadow" x="-20%" y="-20%" width="140%" height="140%">
      <feDropShadow dx="0" dy="12" stdDeviation="16" flood-color="#8a5424" flood-opacity="0.18"/>
    </filter>
  </defs>

  <rect width="640" height="640" rx="44" fill="url(#bg)" />
  <circle cx="126" cy="110" r="72" fill="#ffffff" fill-opacity="0.35" />
  <circle cx="555" cy="154" r="54" fill="#ffffff" fill-opacity="0.32" />
  <circle cx="520" cy="516" r="84" fill="#ffffff" fill-opacity="0.24" />
  <path d="M52 448c86-52 182-43 247-4s160 49 289-4v126H52z" fill="#e7b982" fill-opacity="0.65" />

  <g filter="url(#shadow)">
    <path d="M214 190 166 78c58 6 90 44 103 89z" fill="url(#ear)" />
    <path d="m426 190 45-112c-57 7-89 45-100 89z" fill="url(#ear)" />
    <path d="M318 156c102 0 183 76 183 171 0 118-81 190-183 190s-183-72-183-190c0-95 81-171 183-171z" fill="url(#fur)" />
    <ellipse cx="318" cy="375" rx="132" ry="112" fill="#fff5eb" />
    <ellipse cx="244" cy="288" rx="36" ry="42" fill="#fff5eb" />
    <ellipse cx="392" cy="288" rx="36" ry="42" fill="#fff5eb" />
    <circle cx="252" cy="302" r="16" fill="#23180f" />
    <circle cx="384" cy="302" r="16" fill="#23180f" />
    <circle cx="246" cy="296" r="5" fill="#fff" fill-opacity="0.9" />
    <circle cx="378" cy="296" r="5" fill="#fff" fill-opacity="0.9" />
    <path d="M289 360c18-25 45-25 61 0-13 12-24 18-31 18s-18-6-30-18z" fill="#2c1d14" />
    <path d="M260 404c25 24 48 35 58 35s34-11 59-35" fill="none" stroke="#8c4d2a" stroke-linecap="round" stroke-width="14" />
    <path d="M229 345c-22 6-40 16-52 31" fill="none" stroke="#a2572d" stroke-linecap="round" stroke-width="10" />
    <path d="M409 345c22 6 40 16 52 31" fill="none" stroke="#a2572d" stroke-linecap="round" stroke-width="10" />
    <path d="M293 387c10 14 22 21 26 21 5 0 17-7 27-21" fill="none" stroke="#b46d4f" stroke-linecap="round" stroke-width="8" />
  </g>
</svg>
